<svg width="20" height="22" viewBox="0 0 20 22" fill="none" xmlns="http://www.w3.org/2000/svg">
<path d="M15.5 8L16 4.5M1 6L4.5 8L1 6ZM19 16L15.5 14L19 16ZM10 11L4.5 8L10 11ZM10 11L4.5 14L10 11ZM10 11V4V11ZM10 11V17.5V11ZM10 11L15.5 14L10 11ZM10 11L15.5 8L10 11ZM10 1V4V1ZM10 21V17.5V21ZM19 6L15.5 8L19 6ZM1 16L4.5 14L1 16ZM4.5 8L1 9L4.5 8ZM4.5 8L4 4.5L4.5 8ZM4.5 14L1 13L4.5 14ZM4.5 14L4 17.5L4.5 14ZM10 4L7.5 3L10 4ZM10 4L12.5 3L10 4ZM10 17.5L12.5 19L10 17.5ZM10 17.5L7.5 19L10 17.5ZM15.5 14L16 17.5L15.5 14ZM15.5 14L19 13L15.5 14ZM15.5 8L19 9L15.5 8Z" stroke="#101010" stroke-width="1.5" stroke-linecap="round" stroke-linejoin="round"/>
</svg>
