<svg width="140" height="18" viewBox="0 0 140 18" fill="none" xmlns="http://www.w3.org/2000/svg">
<path d="M12.1736 16.4313L11.254 16.1431L10.5189 17.2472H14.0617L14.7046 14.3962L11.7095 13.6236L12.1736 16.4313Z" fill="black"/>
<path d="M2.00922 0.282507V1.98329H5.22918V0.282507C5.2532 0.281131 5.27587 0.27097 5.29288 0.25396C5.30989 0.236949 5.32005 0.214276 5.32143 0.190259C5.31936 0.154233 5.30413 0.120227 5.27861 0.0947115C5.25309 0.0691959 5.21908 0.0539499 5.18305 0.0518864C5.16421 0.048931 5.14493 0.0504733 5.1268 0.0563818C5.10866 0.0622902 5.09218 0.0723995 5.07869 0.0858878C5.0652 0.0993762 5.05509 0.115863 5.04918 0.134C5.04327 0.152138 5.04174 0.171414 5.04469 0.190259C5.04607 0.214276 5.05623 0.236949 5.07324 0.25396C5.09025 0.27097 5.11292 0.281131 5.13694 0.282507L4.84867 0.833102C4.82684 0.875451 4.79378 0.910968 4.7531 0.935767C4.71242 0.960565 4.66569 0.973683 4.61805 0.973683C4.57041 0.973683 4.52369 0.960565 4.48301 0.935767C4.44233 0.910968 4.40926 0.875451 4.38744 0.833102L4.09917 0.282507C4.14529 0.282507 4.14529 0.236382 4.14529 0.190259C4.14529 0.0980126 4.09917 0.0518864 4.05304 0.0518864C4.01702 0.0539499 3.98301 0.0691959 3.9575 0.0947115C3.93198 0.120227 3.91673 0.154233 3.91467 0.190259C3.91955 0.225224 3.93575 0.257629 3.9608 0.282507L3.77631 0.74374C3.75448 0.786088 3.72141 0.821605 3.68073 0.846404C3.64005 0.871203 3.59333 0.88432 3.54569 0.88432C3.49804 0.88432 3.45133 0.871203 3.41065 0.846404C3.36997 0.821605 3.3369 0.786088 3.31508 0.74374L3.08445 0.236383C3.13058 0.236383 3.13058 0.190258 3.13058 0.144135C3.13058 0.105908 3.1154 0.0692486 3.08837 0.0422181C3.06134 0.0151877 3.02467 0 2.98644 0C2.94822 0 2.91156 0.0151877 2.88453 0.0422181C2.8575 0.0692486 2.84231 0.105908 2.84231 0.144135C2.84718 0.179099 2.86339 0.211505 2.88843 0.236383L2.70395 0.74374C2.68592 0.787855 2.65623 0.826226 2.61804 0.854735C2.57985 0.883244 2.53462 0.900815 2.48721 0.905557C2.43979 0.910299 2.39197 0.902029 2.3489 0.881646C2.30582 0.861263 2.26911 0.829536 2.24271 0.789864L1.95444 0.282507C1.97846 0.281131 2.00113 0.27097 2.01814 0.25396C2.03516 0.236949 2.04532 0.214276 2.04669 0.190259C2.04669 0.152032 2.0315 0.115373 2.00447 0.0883423C1.97744 0.0613118 1.94078 0.0461241 1.90256 0.0461241C1.86433 0.0461241 1.82766 0.0613118 1.80063 0.0883423C1.7736 0.115373 1.75842 0.152032 1.75842 0.190259C1.85067 0.236382 1.89679 0.282507 1.94291 0.282507H2.00922Z" fill="black"/>
<path d="M1.96311 11.6922L1.3318 16.613L0.550595 16.1978L0 17.2558H3.26609L4.55465 13.7966L1.96311 11.6922Z" fill="black"/>
<path d="M19.3054 2.7674L10.4267 3.87146C10.2487 3.89295 10.0806 3.96489 9.94222 4.07879C9.8038 4.19269 9.70085 4.34381 9.64551 4.51431L17.1866 4.05596C18.628 3.96371 19.1209 3.68697 19.3054 2.7674Z" fill="black"/>
<path d="M9.27649 5.61837L16.2238 5.52613C17.1434 5.57225 17.5123 5.52613 17.8352 4.74492L9.4754 5.06778L9.27649 5.61837Z" fill="black"/>
<path d="M9.40329 2.44453C9.14737 2.49747 8.90678 2.60771 8.69957 2.76698C8.49237 2.92625 8.32396 3.13041 8.20698 3.36411L6.96454 5.89511L6.36782 4.5143L6.96454 3.91758V2.67514L6.45718 2.53677L5.44535 2.76739L4.58055 2.3984L3.61485 2.49065L2.69527 2.3984L1.83046 2.76739L0.818636 2.53677L0.311279 2.67514V3.91758L0.907999 4.5143L0.539014 6.58407L1.59697 10.3575L5.59814 13.762L5.5059 16.3852L4.64109 16.1546L3.92618 17.2587H7.42289L9.03431 12.2918L15.5204 13.9032L16.855 16.4342L16.0739 16.146L15.4771 17.25H18.5126L19.1554 16.4227L18.5587 13.3411V9.2448C18.6556 9.24596 18.7517 9.22774 18.8414 9.19121C18.9311 9.15467 19.0126 9.10057 19.0811 9.03208C19.1496 8.96359 19.2037 8.88209 19.2402 8.79238C19.2768 8.70267 19.295 8.60657 19.2938 8.50972V8.32522H18.5587L17.0395 7.08278C16.3467 6.52902 15.4877 6.22442 14.6008 6.21797L9.12368 6.17185L7.88123 7.41429L9.21591 3.95505C9.2809 3.78189 9.39263 3.63013 9.53868 3.51665C9.68474 3.40317 9.85939 3.33241 10.0432 3.31222C11.1473 3.17385 13.0787 2.71549 18.4031 2.06977C19.83 1.88528 20.3345 0.916703 20.3345 0.276745L9.40329 2.44453ZM4.34417 5.66449C4.32041 5.68383 4.29291 5.69805 4.26339 5.70624C4.23387 5.71443 4.20297 5.71642 4.17264 5.71209C4.14232 5.70776 4.11321 5.69719 4.08717 5.68106C4.06112 5.66493 4.0387 5.64359 4.0213 5.61837L3.65232 5.11102C3.65232 5.09878 3.65718 5.08706 3.66583 5.07841C3.67448 5.06976 3.68621 5.06489 3.69844 5.06489C3.7749 5.06489 3.84822 5.03452 3.90229 4.98046C3.95635 4.9264 3.98671 4.85308 3.98671 4.77662V4.48835H3.20551V4.77662C3.20551 4.85308 3.23588 4.9264 3.28994 4.98046C3.344 5.03452 3.41732 5.06489 3.49377 5.06489C3.50601 5.06489 3.51774 5.06976 3.52639 5.07841C3.53504 5.08706 3.5399 5.09878 3.5399 5.11102L3.17091 5.61837C3.13732 5.66069 3.08909 5.6889 3.03574 5.69744C2.98238 5.70597 2.92777 5.69421 2.88265 5.66449H2.83652C2.79141 5.62394 2.75567 5.57406 2.73177 5.51831C2.70788 5.46255 2.6964 5.40226 2.69815 5.34163L2.7904 4.42205V4.28369C2.7904 4.23756 2.88265 4.14531 2.92877 4.09919C3.15388 3.94426 3.36861 3.77479 3.5716 3.59184C3.5716 3.59184 4.03284 3.96082 4.21445 4.09919C4.27146 4.15171 4.31836 4.21425 4.35282 4.28369V4.42205L4.44506 5.34163C4.46534 5.39834 4.46735 5.45998 4.4508 5.51788C4.43426 5.57579 4.39999 5.62705 4.35282 5.66449H4.34417Z" fill="black"/>
<path d="M59.9597 1.02912H35.0852C35.0852 1.02912 30.001 0.927435 30.001 6.11333C30.001 6.11333 29.7977 11.4899 35.0852 11.4899H39.9534C39.9534 11.4899 40.6652 11.4899 40.6652 11.9983C40.6969 12.1018 40.7018 12.2117 40.6791 12.3176C40.6565 12.4235 40.6072 12.5219 40.5359 12.6034C40.4646 12.6849 40.3737 12.7468 40.2717 12.7832C40.1698 12.8197 40.0602 12.8296 39.9534 12.8118H30.4205C30.3935 12.8109 30.3667 12.8155 30.3416 12.8254C30.3166 12.8354 30.2938 12.8503 30.2747 12.8694C30.2557 12.8885 30.2407 12.9112 30.2308 12.9363C30.2209 12.9614 30.2162 12.9882 30.2171 13.0152V16.9681C30.2162 16.9951 30.2209 17.0219 30.2308 17.047C30.2407 17.0721 30.2557 17.0948 30.2747 17.1139C30.2938 17.133 30.3166 17.1479 30.3416 17.1578C30.3667 17.1677 30.3935 17.1724 30.4205 17.1715H40.6652C40.6652 17.1715 45.3299 17.5782 45.5333 12.3034C45.5333 12.3034 45.8383 6.92682 40.6652 6.92682H35.7208C35.7208 6.92682 35.0852 7.02851 35.0852 6.21503C35.0658 6.12412 35.0681 6.02988 35.0919 5.94002C35.1157 5.85015 35.1604 5.76717 35.2223 5.69781C35.2843 5.62846 35.3617 5.57472 35.4483 5.54091C35.5349 5.5071 35.6282 5.4942 35.7208 5.50325H47.1602C47.1872 5.50236 47.214 5.50699 47.2391 5.5169C47.2642 5.52681 47.2869 5.54179 47.306 5.56085C47.3251 5.57991 47.34 5.60269 47.3499 5.62776C47.3598 5.65283 47.3645 5.67967 47.3636 5.70662V16.8601C47.3673 16.9244 47.3881 16.9866 47.4239 17.0402C47.4596 17.0939 47.509 17.137 47.567 17.1651H51.825C51.8519 17.166 51.8788 17.1614 51.9039 17.1515C51.9289 17.1416 51.9517 17.1266 51.9708 17.1075C51.9898 17.0885 52.0048 17.0657 52.0147 17.0406C52.0246 17.0155 52.0293 16.9887 52.0284 16.9618V5.79556C52.0284 5.79556 52.0284 5.49052 52.2317 5.49052H56.3881C56.7258 5.47883 57.0564 5.39033 57.3549 5.23176C57.6533 5.07319 57.9117 4.84872 58.1104 4.57537L59.9597 1.02912Z" fill="black"/>
<path d="M107.732 16.8474V13.3965C107.732 13.0914 107.529 13.1931 107.529 13.1931H101.345C101.345 13.1931 100.71 13.1931 100.71 12.278V1.24524C100.71 0.940189 100.506 1.04187 100.506 1.04187H96.4517C96.2483 1.04187 96.2483 1.34691 96.2483 1.34691V14.4324C96.2699 14.8073 96.3664 15.174 96.5321 15.511C96.6979 15.8479 96.9295 16.1482 97.2133 16.3941C97.4971 16.64 97.8273 16.8265 98.1845 16.9425C98.5416 17.0586 98.9184 17.1019 99.2925 17.0699H107.611C107.408 17.0699 107.713 17.0698 107.713 16.8665" fill="black"/>
<path d="M129.937 7.92461L134.227 1.24523C134.27 1.17738 134.331 1.12255 134.402 1.08669C134.474 1.05084 134.554 1.03533 134.634 1.04185H139.197C139.197 1.04185 139.299 1.04186 139.299 1.24523L132.708 11.4136C132.343 11.9189 132.123 12.5146 132.073 13.1359V16.9872C132.074 17.0142 132.069 17.041 132.059 17.0661C132.049 17.0912 132.034 17.1139 132.015 17.133C131.996 17.1521 131.973 17.167 131.948 17.1769C131.923 17.1868 131.896 17.1915 131.869 17.1906H127.808C127.782 17.1915 127.755 17.1868 127.73 17.1769C127.705 17.167 127.682 17.1521 127.663 17.133C127.644 17.1139 127.629 17.0912 127.619 17.0661C127.609 17.041 127.604 17.0142 127.605 16.9872V13.0342C127.622 12.5308 127.48 12.0347 127.198 11.617L123.042 5.1855C123.042 5.08381 122.839 5.08379 122.839 5.08379H114.221C114.194 5.08291 114.167 5.08758 114.142 5.09748C114.117 5.10739 114.094 5.12233 114.075 5.14139C114.056 5.16046 114.041 5.18323 114.031 5.2083C114.021 5.23338 114.017 5.26022 114.018 5.28716V6.90775C114.017 6.93469 114.021 6.96153 114.031 6.98661C114.041 7.01168 114.056 7.03445 114.075 7.05352C114.094 7.07258 114.117 7.08756 114.142 7.09747C114.167 7.10737 114.194 7.112 114.221 7.11112H121.517C121.517 7.11112 121.72 7.11115 121.72 7.4162V10.6637C121.72 10.6637 121.72 10.9688 121.517 10.9688H114.221C114.194 10.9679 114.167 10.9726 114.142 10.9825C114.117 10.9924 114.094 11.0073 114.075 11.0264C114.056 11.0454 114.041 11.0682 114.031 11.0933C114.021 11.1184 114.017 11.1452 114.018 11.1721V12.7927C114.017 12.8197 114.021 12.8465 114.031 12.8716C114.041 12.8967 114.056 12.9194 114.075 12.9385C114.094 12.9576 114.117 12.9725 114.142 12.9824C114.167 12.9923 114.194 12.997 114.221 12.9961H122.337C122.337 12.9961 122.54 12.9961 122.54 13.3011V16.7521C122.54 16.7521 122.54 17.0571 122.337 17.0571H111.177C109.27 17.0571 109.149 14.8264 109.149 14.8264V1.33421C109.149 1.33421 109.149 1.02913 109.353 1.02913H125.374C125.453 1.03618 125.525 1.07252 125.578 1.13084L129.734 7.92461C129.747 7.93846 129.763 7.9495 129.78 7.95704C129.798 7.96458 129.817 7.96844 129.836 7.96844C129.855 7.96844 129.874 7.96458 129.891 7.95704C129.909 7.9495 129.924 7.93846 129.937 7.92461Z" fill="black"/>
<path d="M77.6083 16.8474C77.6074 16.8743 77.6121 16.9012 77.622 16.9262C77.6319 16.9513 77.6468 16.9741 77.6659 16.9932C77.685 17.0122 77.7077 17.0272 77.7328 17.0371C77.7579 17.047 77.7847 17.0516 77.8117 17.0508H81.8663C81.8933 17.0516 81.9201 17.047 81.9452 17.0371C81.9703 17.0272 81.993 17.0122 82.0121 16.9932C82.0311 16.9741 82.0461 16.9513 82.056 16.9262C82.0659 16.9012 82.0706 16.8743 82.0697 16.8474V8.02628C82.0697 7.99931 82.0804 7.97347 82.0995 7.9544C82.1185 7.93533 82.1444 7.92461 82.1714 7.92461H82.2731L86.7217 14.8201C88.444 17.2541 90.4714 17.0508 90.4714 17.0508H94.2209V1.33421C94.2209 1.02916 94.0176 1.02913 94.0176 1.02913H89.9629C89.7595 1.02913 89.7596 1.33421 89.7596 1.33421V10.4604C89.7596 10.4873 89.7489 10.5132 89.7298 10.5323C89.7107 10.5513 89.6848 10.562 89.6579 10.562C89.6309 10.562 89.605 10.5513 89.5859 10.5323C89.5669 10.5132 89.5562 10.4873 89.5562 10.4604L84.688 2.95479C84.3322 2.38369 83.8397 1.91027 83.2549 1.57738C82.6701 1.24449 82.0116 1.06263 81.3388 1.04822H77.5892L77.6083 16.8474Z" fill="black"/>
<path d="M68.7681 2.85311C68.364 2.21626 67.7878 1.70689 67.1062 1.38407C66.4246 1.06126 65.6655 0.938187 64.9168 1.02911C64.1716 0.971903 63.4245 1.11009 62.7491 1.42996C62.0736 1.74984 61.4933 2.24037 61.0655 2.85311L53.6616 17.0507H58.7458C58.9492 16.644 59.4576 15.7352 59.9597 14.6167H65.0439C65.4898 14.6363 65.9313 14.5213 66.3109 14.2867C66.6906 14.0521 66.991 13.7087 67.1729 13.3011C67.4779 12.6656 67.8847 11.9856 68.088 11.4772C69.3019 14.0193 70.5221 16.447 70.9289 17.0571H76.0131C76.2164 17.0571 71.3483 7.32082 68.8126 2.85943M62.1205 10.8734C63.6394 7.82927 65.063 4.88676 65.063 4.88676C65.063 4.88676 66.4802 7.82927 68.0054 10.8734H62.1205Z" fill="black"/>
</svg>
