<svg width="13" height="8" viewBox="0 0 13 8" fill="none" xmlns="http://www.w3.org/2000/svg">
<path d="M7.6531 6.70065L8.4175 7.23294C8.5359 7.3183 8.60142 7.43263 8.59994 7.55131C8.59846 7.66999 8.5301 7.78351 8.40958 7.86743C8.28907 7.95135 8.12604 7.99895 7.95561 7.99998C7.78518 8.00101 7.62099 7.95539 7.4984 7.87294L5.65955 6.59293C5.53769 6.50805 5.46924 6.39294 5.46924 6.27292C5.46924 6.1529 5.53769 6.0378 5.65955 5.95292L7.4984 4.67245C7.62037 4.58758 7.78575 4.53992 7.95818 4.53997C8.13061 4.54001 8.29594 4.58774 8.41782 4.67268C8.5397 4.75761 8.60814 4.87277 8.60808 4.99284C8.60802 5.11291 8.53947 5.22804 8.4175 5.31291L7.72395 5.79541H9.1C9.78956 5.79541 10.4509 5.60466 10.9385 5.26513C11.4261 4.92559 11.7 4.46509 11.7 3.98492C11.7 3.50474 11.4261 3.04424 10.9385 2.7047C10.4509 2.36517 9.78956 2.17442 9.1 2.17442C8.92761 2.17442 8.76228 2.12674 8.64038 2.04185C8.51848 1.95697 8.45 1.84184 8.45 1.7218C8.45 1.60176 8.51848 1.48663 8.64038 1.40175C8.76228 1.31687 8.92761 1.26918 9.1 1.26918C10.1343 1.26918 11.1263 1.5553 11.8577 2.0646C12.5891 2.5739 13 3.26466 13 3.98492C13 4.70517 12.5891 5.39593 11.8577 5.90523C11.1263 6.41453 10.1343 6.70065 9.1 6.70065H7.6531ZM5.37745 1.26918L4.6644 0.773105C4.60401 0.731052 4.5561 0.681127 4.52342 0.626182C4.49074 0.571237 4.47391 0.512347 4.47391 0.452874C4.47391 0.332765 4.54243 0.217574 4.6644 0.132644C4.78637 0.0477134 4.95179 0 5.12427 0C5.29676 0 5.46218 0.0477134 5.58415 0.132644L7.42235 1.41311C7.54421 1.49799 7.61266 1.6131 7.61266 1.73312C7.61266 1.85314 7.54421 1.96824 7.42235 2.05312L5.58415 3.33314C5.46227 3.41807 5.29693 3.46581 5.1245 3.46585C4.95208 3.46589 4.78669 3.41824 4.66472 3.33336C4.54276 3.24849 4.4742 3.13336 4.47414 3.01329C4.47408 2.89323 4.54252 2.77806 4.6644 2.69313L5.40995 2.17442H3.9C3.21044 2.17442 2.54912 2.36517 2.06152 2.7047C1.57393 3.04424 1.3 3.50474 1.3 3.98492C1.3 4.46509 1.57393 4.92559 2.06152 5.26513C2.54912 5.60466 3.21044 5.79541 3.9 5.79541C4.07239 5.79541 4.23772 5.84309 4.35962 5.92798C4.48152 6.01286 4.55 6.12799 4.55 6.24803C4.55 6.36807 4.48152 6.4832 4.35962 6.56808C4.23772 6.65296 4.07239 6.70065 3.9 6.70065C2.86566 6.70065 1.87368 6.41453 1.14228 5.90523C0.410892 5.39593 0 4.70517 0 3.98492C0 3.26466 0.410892 2.5739 1.14228 2.0646C1.87368 1.5553 2.86566 1.26918 3.9 1.26918H5.37745Z" fill="#2690CA"/>
</svg>
