<svg width="28" height="28" viewBox="0 0 28 28" fill="none" xmlns="http://www.w3.org/2000/svg">
<g clip-path="url(#clip0_1_4890)">
<path d="M20.4167 23.3333C22.0275 23.3333 23.3333 22.0275 23.3333 20.4167C23.3333 18.8058 22.0275 17.5 20.4167 17.5C18.8058 17.5 17.5 18.8058 17.5 20.4167C17.5 22.0275 18.8058 23.3333 20.4167 23.3333Z" stroke="white" stroke-width="2" stroke-linecap="round" stroke-linejoin="round"/>
<path d="M7 9.33331V22.1666C7.00022 22.4124 7.07806 22.6518 7.22241 22.8508C7.36675 23.0497 7.57023 23.1979 7.80382 23.2744C8.0374 23.3508 8.28916 23.3515 8.52318 23.2764C8.7572 23.2013 8.96152 23.0542 9.107 22.8561L13.4167 16.9166V16.9808" stroke="white" stroke-width="2" stroke-linecap="round" stroke-linejoin="round"/>
<path d="M7.00004 9.33335H24.5L20.4167 17.5L12.1334 16.6285C11.2884 16.5397 10.4836 16.2219 9.806 15.7093C9.12835 15.1968 8.60349 14.5089 8.28804 13.72L4.95954 5.40169C4.87323 5.18498 4.72395 4.99912 4.53096 4.8681C4.33797 4.73709 4.11013 4.66693 3.87687 4.66669H2.33337" stroke="white" stroke-width="2" stroke-linecap="round" stroke-linejoin="round"/>
</g>
<defs>
<clipPath id="clip0_1_4890">
<rect width="28" height="28" fill="white"/>
</clipPath>
</defs>
</svg>
