<svg width="18" height="13" viewBox="0 0 18 13" fill="none" xmlns="http://www.w3.org/2000/svg">
<path d="M4.00001 4V3C4.00001 2.20435 4.31608 1.44129 4.87869 0.87868C5.4413 0.31607 6.20436 0 7.00001 0H11C11.7957 0 12.5587 0.31607 13.1213 0.87868C13.6839 1.44129 14 2.20435 14 3V4H18V10C18 10.7956 17.6839 11.5587 17.1213 12.1213C16.5587 12.6839 15.7956 13 15 13H3C2.20435 13 1.44129 12.6839 0.87868 12.1213C0.31607 11.5587 0 10.7956 0 10V4H4.00001ZM6.00001 4H12V3C12 2.73478 11.8947 2.48043 11.7071 2.29289C11.5196 2.10536 11.2652 2 11 2H7.00001C6.73479 2 6.48044 2.10536 6.2929 2.29289C6.10537 2.48043 6.00001 2.73478 6.00001 3V4Z" fill="black"/>
</svg>
