<svg width="14" height="8" viewBox="0 0 14 8" fill="none" xmlns="http://www.w3.org/2000/svg">
<path d="M6.66929 5.25529L11.6193 0.305288C11.7115 0.209778 11.8219 0.133596 11.9439 0.0811868C12.0659 0.0287778 12.1971 0.00119157 12.3299 3.77567e-05C12.4627 -0.00111606 12.5943 0.0241857 12.7172 0.0744665C12.8401 0.124747 12.9518 0.199001 13.0457 0.292893C13.1396 0.386786 13.2138 0.498438 13.2641 0.621334C13.3144 0.744231 13.3397 0.87591 13.3385 1.00869C13.3374 1.14147 13.3098 1.27269 13.2574 1.39469C13.205 1.5167 13.1288 1.62704 13.0333 1.71929L7.37629 7.37629C7.18876 7.56376 6.93445 7.66907 6.66929 7.66907C6.40412 7.66907 6.14982 7.56376 5.96229 7.37629L0.305288 1.71929C0.209778 1.62704 0.133596 1.5167 0.0811868 1.39469C0.0287778 1.27269 0.00119157 1.14147 3.77568e-05 1.00869C-0.00111606 0.87591 0.0241856 0.744231 0.0744665 0.621334C0.124747 0.498438 0.199001 0.386786 0.292893 0.292893C0.386786 0.199001 0.498438 0.124747 0.621334 0.0744665C0.744231 0.0241857 0.87591 -0.00111606 1.00869 3.77567e-05C1.14147 0.00119157 1.27269 0.0287778 1.39469 0.0811868C1.5167 0.133596 1.62704 0.209778 1.71929 0.305288L6.66929 5.25529Z" fill="#101010"/>
</svg>
