<svg width="18" height="17" viewBox="0 0 18 17" fill="none" xmlns="http://www.w3.org/2000/svg">
<path d="M3.22268 16.2634C3.13493 16.7666 3.62767 17.1598 4.06191 16.9354L9.00057 14.3788L13.9381 16.9354C14.3723 17.1598 14.8651 16.7666 14.7773 16.2645L13.8436 10.9043L17.8058 7.10109C18.177 6.74525 17.9858 6.09477 17.4885 6.0245L11.9784 5.23576L9.52144 0.332204C9.47463 0.232806 9.40079 0.148826 9.30849 0.0900208C9.21619 0.0312158 9.10922 0 9.00001 0C8.8908 0 8.78383 0.0312158 8.69153 0.0900208C8.59923 0.148826 8.52538 0.232806 8.47858 0.332204L6.02163 5.2369L0.511476 6.02564C0.0153598 6.0959 -0.177012 6.74638 0.193107 7.10222L4.15641 10.9054L3.22268 16.2657V16.2634ZM8.7407 13.1277L4.59403 15.2741L5.37476 10.7898C5.39356 10.6866 5.38664 10.5803 5.35464 10.4804C5.32264 10.3805 5.26655 10.2902 5.19139 10.2175L1.9222 7.07842L6.48062 6.42567C6.57485 6.41086 6.66418 6.37349 6.74111 6.3167C6.81804 6.25991 6.88033 6.18535 6.92273 6.0993L8.99832 1.95388L11.0762 6.0993C11.1186 6.18535 11.1808 6.25991 11.2578 6.3167C11.3347 6.37349 11.424 6.41086 11.5183 6.42567L16.0767 7.07729L12.8075 10.2164C12.7322 10.2892 12.676 10.3797 12.644 10.4798C12.612 10.5799 12.6051 10.6864 12.6241 10.7898L13.4049 15.2741L9.25819 13.1277C9.17809 13.0858 9.08915 13.0639 8.99888 13.0639C8.90862 13.0639 8.8208 13.0858 8.7407 13.1277Z" fill="#81234D"/>
</svg>
